<?xml version="1.0" encoding="utf-8"?>
<!-- Generator: Adobe Illustrator 16.0.0, SVG Export Plug-In . SVG Version: 6.00 Build 0)  -->
<!DOCTYPE svg PUBLIC "-//W3C//DTD SVG 1.1//EN" "http://www.w3.org/Graphics/SVG/1.1/DTD/svg11.dtd">
<svg version="1.1" id="Layer_1" xmlns="http://www.w3.org/2000/svg" xmlns:xlink="http://www.w3.org/1999/xlink" x="0px" y="0px"
	 width="2000px" height="2000px" viewBox="0 0 2000 2000" enable-background="new 0 0 2000 2000" xml:space="preserve">
<path fill="#FFFFFF" d="M1892.07,2.553H112.937C51.959,2.553,2.558,51.961,2.558,112.932v1779.137
	c0,60.956,49.401,110.378,110.378,110.378h957.823v-774.463H810.137V926.16h260.623V703.573
	c0-258.31,157.76-398.965,388.198-398.965c110.37,0,205.243,8.217,232.889,11.891v269.95l-159.823,0.072
	c-125.313,0-149.578,59.551-149.578,146.938V926.16h298.879l-38.923,301.824h-259.956v774.463h509.625
	c60.947,0,110.371-49.422,110.371-110.378V112.932C2002.441,51.961,1953.018,2.553,1892.07,2.553z"/>
</svg>
