<?xml version="1.0" encoding="utf-8"?>
<!-- Generator: Adobe Illustrator 16.0.0, SVG Export Plug-In . SVG Version: 6.00 Build 0)  -->
<!DOCTYPE svg PUBLIC "-//W3C//DTD SVG 1.1//EN" "http://www.w3.org/Graphics/SVG/1.1/DTD/svg11.dtd">
<svg version="1.1" id="Layer_1" xmlns="http://www.w3.org/2000/svg" xmlns:xlink="http://www.w3.org/1999/xlink" x="0px" y="0px"
	 width="2000px" height="2000px" viewBox="0 0 2000 2000" enable-background="new 0 0 2000 2000" xml:space="preserve">
<path fill="#FFFFFF" d="M2002.695,384.914c-73.43,32.566-152.35,54.582-235.177,64.477
	c84.538-50.674,149.471-130.921,180.039-226.537c-79.119,46.924-166.751,81.002-260.014,99.366
	c-74.7-79.583-181.109-129.309-298.883-129.309c-226.137,0-409.474,183.333-409.474,409.456c0,32.095,3.622,63.343,10.602,93.313
	c-340.303-17.073-642.017-180.089-843.972-427.82c-35.246,60.477-55.436,130.812-55.436,205.854
	c0,142.057,72.29,267.386,182.157,340.816c-67.121-2.124-130.257-20.546-185.465-51.215c-0.028,1.71-0.035,3.422-0.035,5.147
	c0,198.394,141.143,363.89,328.461,401.503c-34.362,9.354-70.536,14.358-107.879,14.358c-26.384,0-52.036-2.566-77.037-7.344
	c52.107,162.674,203.324,281.061,382.5,284.368c-140.137,109.817-316.692,175.277-508.529,175.277
	c-33.051,0-65.646-1.939-97.676-5.717c181.208,116.176,396.438,183.96,627.672,183.96c753.156,0,1165.007-623.929,1165.007-1165.021
	c0-17.752-0.398-35.411-1.183-52.971C1878.378,539.146,1947.8,467.028,2002.695,384.914z"/>
</svg>
